<svg xmlns="http://www.w3.org/2000/svg" id="svg648" version="1.1" viewBox="0 0 400 225"><defs id="defs604"><style id="style602">.cls-3{fill:#fff}.cls-5{fill:#97b9f5}.cls-6{fill:#405f84}</style></defs><path id="rect608" d="M0 0h400v225H0Z" style="fill:none"/><g id="g2" transform="translate(-5.816 3.705)"><g id="g1" style="stroke-width:.550486" transform="matrix(1.81658 0 0 1.81658 -274.057 -190.032)"><circle id="path1240" cx="264.164" cy="164.5" r="45.452" style="font-variation-settings:normal;vector-effect:none;fill:#97b9f5;fill-opacity:1;stroke-width:.550486;stroke-linecap:butt;stroke-linejoin:miter;stroke-miterlimit:4;stroke-dasharray:none;stroke-dashoffset:0;stroke-opacity:1;-inkscape-stroke:none;paint-order:stroke fill markers;stop-color:#000"/><circle id="path1240-3" cx="264.164" cy="164.5" r="36.93" style="font-variation-settings:normal;vector-effect:none;fill:#405f84;fill-opacity:1;stroke-width:.550486;stroke-linecap:butt;stroke-linejoin:miter;stroke-miterlimit:4;stroke-dasharray:none;stroke-dashoffset:0;stroke-opacity:1;-inkscape-stroke:none;paint-order:stroke fill markers;stop-color:#000"/></g><path id="text1" d="M147.89 98.135v-5.341h26.045v5.34h-9.78v26.662h-6.594V98.135Zm55.498 11.385q0 7.32-3.803 11.517-3.78 4.198-9.802 4.198-6.023 0-9.847-4.198-3.825-4.198-3.825-11.517v-1.428q0-7.32 3.803-11.518 3.802-4.22 9.825-4.22 6.022 0 9.824 4.22 3.825 4.198 3.825 11.518zm-6.682-1.472q0-5.012-1.824-7.627-1.825-2.616-5.143-2.616-3.32 0-5.122 2.594-1.802 2.571-1.824 7.539v1.582q0 4.99 1.824 7.649 1.825 2.638 5.166 2.638 3.318 0 5.099-2.616 1.802-2.616 1.824-7.56zm11.451 16.748V92.794h9.869q6.462 0 10.528 4.22 4.088 4.22 4.088 11.078v1.428q0 6.858-4.088 11.078-4.066 4.198-10.616 4.198zm6.616-26.661v21.342h3.165q3.89 0 5.912-2.528 2.044-2.527 2.088-7.231v-1.67q0-4.88-1.934-7.363-1.912-2.484-5.78-2.55zm48.97 11.385q0 7.32-3.803 11.517-3.78 4.198-9.802 4.198-6.023 0-9.847-4.198t-3.824-11.517v-1.428q0-7.32 3.802-11.518 3.802-4.22 9.825-4.22 6.022 0 9.824 4.22 3.825 4.198 3.825 11.518zm-6.682-1.472q0-5.012-1.824-7.627-1.824-2.616-5.143-2.616-3.32 0-5.121 2.594-1.803 2.571-1.825 7.539v1.582q0 4.99 1.825 7.649 1.824 2.638 5.165 2.638 3.319 0 5.099-2.616 1.802-2.616 1.824-7.56z" aria-label="TODO" style="font-weight:700;font-size:45.0136px;line-height:1.25;-inkscape-font-specification:&quot;sans-serif Bold&quot;;fill:#fff;stroke-width:.999999"/></g></svg>